<?xml version="1.0" encoding="UTF-8"?>
<svg id="_레이어_2" data-name="레이어 2" xmlns="http://www.w3.org/2000/svg" viewBox="0 0 300 306.5">
  <defs>
    <style>
      .cls-1 {
        fill: #fff;
      }

      .cls-2 {
        fill: #ff981d;
      }

      .cls-3 {
        fill: #fc9d9d;
        stroke: #000;
        stroke-miterlimit: 10;
        stroke-width: 10px;
      }
    </style>
  </defs>
  <g id="_레이어_1-2" data-name="레이어 1">
    <g>
      <g>
        <rect class="cls-2" x="47.25" y="5" width="50" height="70" rx="21.73" ry="21.73"/>
        <path d="M75.52,10c9.22,0,16.73,7.5,16.73,16.73v26.55c0,9.22-7.5,16.73-16.73,16.73h-6.55c-9.22,0-16.73-7.5-16.73-16.73V26.73c0-9.22,7.5-16.73,16.73-16.73h6.55m0-10h-6.55c-14.76,0-26.73,11.97-26.73,26.73v26.55c0,14.76,11.97,26.73,26.73,26.73h6.55c14.76,0,26.73-11.97,26.73-26.73V26.73c0-14.76-11.97-26.73-26.73-26.73h0Z"/>
      </g>
      <g>
        <path class="cls-2" d="M224.48,5.5h6.55c11.99,0,21.73,9.74,21.73,21.73v26.55c0,11.99-9.74,21.73-21.73,21.73h-6.55c-11.99,0-21.73-9.74-21.73-21.73V27.23c0-11.99,9.74-21.73,21.73-21.73Z"/>
        <path d="M231.02,10.5c9.22,0,16.73,7.5,16.73,16.73v26.55c0,9.22-7.5,16.73-16.73,16.73h-6.55c-9.22,0-16.73-7.5-16.73-16.73V27.23c0-9.22,7.5-16.73,16.73-16.73h6.55m0-10h-6.55c-14.76,0-26.73,11.97-26.73,26.73v26.55c0,14.76,11.97,26.73,26.73,26.73h6.55c14.76,0,26.73-11.97,26.73-26.73V27.23c0-14.76-11.97-26.73-26.73-26.73h0Z"/>
      </g>
      <path d="M72.75,27.5v25h0V27.5s0,0,0,0m0-10c-5.52,0-10,4.48-10,10V62.5h20V27.5c0-5.52-4.48-10-10-10h0Z"/>
      <path d="M227.75,27.5v25h0V27.5s0,0,0,0m0-10c-5.52,0-10,4.48-10,10V62.5h20V27.5c0-5.52-4.48-10-10-10h0Z"/>
      <g>
        <path class="cls-2" d="M75,301.5c-38.6,0-70-31.4-70-70V109.5c0-30.33,24.67-55,55-55H240c30.33,0,55,24.67,55,55v122c0,38.6-31.4,70-70,70H75Z"/>
        <path d="M240,59.5c27.57,0,50,22.43,50,50v122c0,35.84-29.16,65-65,65H75c-35.84,0-65-29.16-65-65V109.5c0-27.57,22.43-50,50-50H240m0-10H60C26.86,49.5,0,76.36,0,109.5v122c0,41.42,33.58,75,75,75H225c41.42,0,75-33.58,75-75V109.5c0-33.14-26.86-60-60-60h0Z"/>
      </g>
      <g>
        <ellipse class="cls-1" cx="124.75" cy="255" rx="9" ry="25.5"/>
        <path d="M124.75,236.03c1.73,3,4,9.35,4,18.97s-2.27,15.98-4,18.97c-1.73-3-4-9.35-4-18.97s2.27-15.98,4-18.97m0-11.53c-7.73,0-14,13.66-14,30.5s6.27,30.5,14,30.5,14-13.66,14-30.5-6.27-30.5-14-30.5h0Z"/>
      </g>
      <ellipse class="cls-3" cx="149.75" cy="246" rx="14" ry="15.5"/>
      <g>
        <ellipse class="cls-1" cx="175.75" cy="255" rx="9" ry="25.5"/>
        <path d="M175.75,236.03c1.73,3,4,9.35,4,18.97s-2.27,15.98-4,18.97c-1.73-3-4-9.35-4-18.97s2.27-15.98,4-18.97m0-11.53c-7.73,0-14,13.66-14,30.5s6.27,30.5,14,30.5,14-13.66,14-30.5-6.27-30.5-14-30.5h0Z"/>
      </g>
      <g>
        <g>
          <circle class="cls-1" cx="175.5" cy="219" r="25.5"/>
          <path d="M175.5,198.5c11.3,0,20.5,9.2,20.5,20.5s-9.2,20.5-20.5,20.5-20.5-9.2-20.5-20.5,9.2-20.5,20.5-20.5m0-10c-16.84,0-30.5,13.66-30.5,30.5s13.66,30.5,30.5,30.5,30.5-13.66,30.5-30.5-13.66-30.5-30.5-30.5h0Z"/>
        </g>
        <g>
          <circle class="cls-1" cx="124.5" cy="219" r="25.5"/>
          <path d="M124.5,198.5c11.3,0,20.5,9.2,20.5,20.5s-9.2,20.5-20.5,20.5-20.5-9.2-20.5-20.5,9.2-20.5,20.5-20.5m0-10c-16.84,0-30.5,13.66-30.5,30.5s13.66,30.5,30.5,30.5,30.5-13.66,30.5-30.5-13.66-30.5-30.5-30.5h0Z"/>
        </g>
      </g>
      <rect x="68.75" y="108.5" width="50" height="66" rx="25" ry="25"/>
      <rect x="180.75" y="108.5" width="50" height="66" rx="25" ry="25"/>
      <g>
        <path d="M51,194H10c-5.52,0-10,4.48-10,10s4.48,10,10,10H51c5.52,0,10-4.48,10-10s-4.48-10-10-10h0Z"/>
        <path d="M51,166.5H10c-5.52,0-10,4.48-10,10s4.48,10,10,10H51c5.52,0,10-4.48,10-10s-4.48-10-10-10h0Z"/>
        <path d="M51,221.5H10c-5.52,0-10,4.48-10,10s4.48,10,10,10H51c5.52,0,10-4.48,10-10s-4.48-10-10-10h0Z"/>
      </g>
      <g>
        <path d="M290,194h-41c-5.52,0-10,4.48-10,10s4.48,10,10,10h41c5.52,0,10-4.48,10-10s-4.48-10-10-10h0Z"/>
        <path d="M290,166.5h-41c-5.52,0-10,4.48-10,10s4.48,10,10,10h41c5.52,0,10-4.48,10-10s-4.48-10-10-10h0Z"/>
        <path d="M290,221.5h-41c-5.52,0-10,4.48-10,10s4.48,10,10,10h41c5.52,0,10-4.48,10-10s-4.48-10-10-10h0Z"/>
      </g>
      <path d="M150,59.5v0m10-10h-20v35c0,5.52,4.48,10,10,10s10-4.48,10-10V49.5h0Z"/>
      <path d="M177.5,59.5v0m10-10h-20v35c0,5.52,4.48,10,10,10s10-4.48,10-10V49.5h0Z"/>
      <path d="M122.5,59.5v0m10-10h-20v35c0,5.52,4.48,10,10,10s10-4.48,10-10V49.5h0Z"/>
      <path d="M154.35,203.5h-5.19c-9.61,0-17.4-7.79-17.4-17.4v-10.16c0-6.87,5.57-12.44,12.44-12.44h15.13c6.87,0,12.44,5.57,12.44,12.44v10.16c0,9.61-7.79,17.4-17.4,17.4Z"/>
      <path class="cls-1" d="M93.75,167.9h0c0-14.58-8.95-26.4-20-26.4h0c11.05,0,20-11.82,20-26.4h0c0,14.58,8.95,26.4,20,26.4h0c-11.05,0-20,11.82-20,26.4Z"/>
      <path class="cls-1" d="M205.75,167.9h0c0-14.58-8.95-26.4-20-26.4h0c11.05,0,20-11.82,20-26.4h0c0,14.58,8.95,26.4,20,26.4h0c-11.05,0-20,11.82-20,26.4Z"/>
    </g>
  </g>
</svg>